# xmcd CD database file
#
# Track frame offsets:
#	150
#	13415
#	26313
#	39509
#	53269
#	64591
#	78517
#	85607
#	97039
#	110242
#	123194
#	135449
#	146449
#	164701
#	180466
#
# Disc length: 2580 seconds
#
# Revision: 1
# Processed by: cddbd v1.5.2PL0 Copyright (c) Steve Scherf et al.
# Submitted via: CDex 1.92
#
DISCID=bd0a120f
DTITLE=Elmore James - Big Box
DYEAR=2012
DGENRE=Blues
TTITLE0=Baby Please Set A Date
TTITLE1=Early One Morning
TTITLE2=Sinful Woman
TTITLE3=Stranger Blues
TTITLE4=Person to Person
TTITLE5=Sweet Little Woman
TTITLE6=You Know You're Wrong (Take 1 - Incomplete)
TTITLE7=Look On Yonder Wall
TTITLE8=Sho' Nuff I Do
TTITLE9=Find My Kind Of Woman (Take 3)
TTITLE10=I've Got a Right to Love My Baby
TTITLE11=No Love In My Heart
TTITLE12=She's Got To Go
TTITLE13=I Believe
TTITLE14=Long Tall Woman
EXTD=YEAR: 2012
EXTT0=
EXTT1=
EXTT2=
EXTT3=
EXTT4=
EXTT5=
EXTT6=
EXTT7=
EXTT8=
EXTT9=
EXTT10=
EXTT11=
EXTT12=
EXTT13=
EXTT14=
PLAYORDER=
